<svg width="466" height="411" viewBox="0 0 466 411" fill="none" xmlns="http://www.w3.org/2000/svg">
<g clip-path="url(#clip0_467_1947)">
<path d="M271.954 48.3755C268.429 42.5492 264.252 36.3285 257.712 34.426C250.137 32.2228 242.356 36.5995 235.756 40.9184C216.017 53.8347 197.009 67.8323 178.818 82.8471L178.838 83.0732C193 82.0971 207.163 81.1209 221.326 80.1448C231.558 79.4395 242.142 78.6369 251.185 73.7989C254.616 71.9631 257.961 69.5107 261.849 69.3398C266.68 69.1275 270.893 72.4996 274.203 76.0227C293.784 96.8628 299.45 128.732 321.418 147.042C307.566 112.898 291.026 79.9055 271.954 48.3755Z" fill="#F2F2F2"/>
<path d="M392.316 225.137C390.15 222.404 389.266 221.764 387.13 219.006C369.738 196.525 353.391 173.284 338.09 149.284C327.696 132.984 317.818 116.371 308.455 99.4453C303.998 91.3984 299.663 83.2885 295.45 75.1153C292.18 68.7781 288.984 62.403 285.861 55.99C284.968 54.1583 284.1 52.3181 283.236 50.4738C281.201 46.1367 279.204 41.7786 277.06 37.5004C274.616 32.6243 271.642 27.5124 267.155 24.2364C265.113 22.6843 262.671 21.7452 260.115 21.5289C256.462 21.2931 253.092 22.8005 249.923 24.447C226.72 36.6383 205.062 51.5653 185.414 68.9087C165.735 86.1821 148.145 105.697 133.003 127.055C132.54 127.716 131.445 127.085 131.912 126.42C133.753 123.817 135.631 121.243 137.545 118.697C161.346 87.0597 190.529 59.8533 223.76 38.3215C229.351 34.7002 235.047 31.2488 240.849 27.9672C243.772 26.3123 246.709 24.6785 249.696 23.1458C252.624 21.6426 255.733 20.2909 259.078 20.2404C270.462 20.0635 276.356 32.9485 280.405 41.6186C281.677 44.3471 282.965 47.0673 284.268 49.7791C289.193 60.0744 294.308 70.2757 299.612 80.3831C302.886 86.6234 306.231 92.8273 309.648 98.9947C320.281 118.2 331.583 137.017 343.554 155.445C359.412 179.854 375.143 201.418 393.209 224.245C393.706 224.876 392.817 225.777 392.316 225.137Z" fill="#E4E4E4"/>
<path d="M184.288 62.5461C183.627 61.8093 182.97 61.0724 182.304 60.3355C177.055 54.533 171.422 48.7979 164.213 45.4714C160.776 43.8352 157.024 42.9659 153.217 42.9239C149.282 42.9365 145.436 43.9681 141.8 45.4125C140.081 46.0988 138.4 46.8778 136.745 47.7073C134.853 48.659 132.995 49.6738 131.145 50.697C127.674 52.6171 124.247 54.6214 120.866 56.71C114.137 60.866 107.62 65.3393 101.313 70.1297C98.0435 72.6141 94.8415 75.1799 91.7071 77.8271C88.7917 80.2862 85.9353 82.8112 83.1378 85.4023C82.5396 85.9539 81.6464 85.0612 82.2446 84.5096C82.9819 83.8233 83.7276 83.1411 84.4733 82.4674C86.5798 80.5641 88.7201 78.6973 90.8941 76.867C94.8584 73.5236 98.9254 70.3094 103.095 67.2243C109.579 62.424 116.286 57.9494 123.216 53.8003C126.68 51.7286 130.19 49.744 133.749 47.8463C134.823 47.2736 135.91 46.7136 137.01 46.183C139.505 44.9252 142.097 43.8705 144.762 43.0291C148.536 41.8087 152.53 41.4166 156.47 41.8796C160.274 42.4327 163.939 43.6999 167.272 45.6146C174.35 49.5685 179.839 55.6826 185.182 61.6492C185.721 62.2556 184.832 63.1525 184.288 62.5461Z" fill="#E4E4E4"/>
<path d="M329.311 122.675L346.271 116.475L354.692 113.397C357.435 112.394 360.171 111.253 363.006 110.535C365.47 109.832 368.086 109.865 370.531 110.631C372.711 111.437 374.707 112.674 376.4 114.267C378.129 115.859 379.738 117.576 381.214 119.405C383.047 121.608 384.853 123.833 386.668 126.05C394.156 135.204 401.596 144.396 408.986 153.629C416.376 162.861 423.717 172.133 431.009 181.444C438.318 190.778 445.577 200.15 452.786 209.562C453.669 210.715 454.551 211.868 455.433 213.023C455.92 213.66 457.018 213.032 456.524 212.385C449.262 202.879 441.95 193.411 434.586 183.983C427.205 174.532 419.773 165.121 412.29 155.75C404.806 146.379 397.273 137.049 389.689 127.76C387.799 125.445 385.906 123.134 384.011 120.825C382.412 118.877 380.831 116.908 379.077 115.095C375.857 111.767 371.835 108.826 367.02 108.746C364.189 108.699 361.45 109.597 358.82 110.548C355.984 111.573 353.156 112.618 350.324 113.653L333.245 119.896L328.975 121.457C328.217 121.734 328.545 122.955 329.311 122.675H329.311Z" fill="#E4E4E4"/>
<path d="M161.982 52.7727C153.363 48.3454 142.325 49.2125 134.405 54.7437C149.512 57.3487 164.454 60.8341 179.154 65.1823C173.049 61.6069 168.274 56.0051 161.982 52.7727Z" fill="#F2F2F2"/>
<path d="M134.32 54.7285L132.661 56.0764C133.222 55.6046 133.806 55.1623 134.405 54.7437C134.377 54.7388 134.348 54.7334 134.32 54.7285Z" fill="#F2F2F2"/>
<path d="M375.761 122.737C374.092 120.706 372.287 118.579 369.789 117.754L367.458 117.846C385.206 149.19 409.175 176.578 437.895 198.329C417.184 173.132 396.473 147.934 375.761 122.737Z" fill="#F2F2F2"/>
<path d="M269.023 288.671C268.96 288.671 268.898 288.66 268.839 288.638L223.915 272.144C223.782 272.095 223.674 271.996 223.615 271.868C223.556 271.74 223.55 271.593 223.598 271.46C223.647 271.328 223.747 271.22 223.875 271.161C224.003 271.101 224.15 271.095 224.283 271.144L269.207 287.638C269.324 287.681 269.423 287.764 269.485 287.873C269.547 287.981 269.57 288.108 269.548 288.231C269.526 288.355 269.461 288.466 269.365 288.547C269.269 288.627 269.148 288.671 269.023 288.671H269.023Z" fill="black"/>
<path d="M186.917 257.764C186.854 257.764 186.792 257.753 186.733 257.732L141.809 241.238C141.676 241.189 141.568 241.089 141.509 240.961C141.449 240.833 141.443 240.686 141.492 240.554C141.541 240.421 141.64 240.313 141.769 240.254C141.897 240.195 142.044 240.189 142.176 240.237L187.1 256.731C187.218 256.775 187.317 256.858 187.379 256.966C187.441 257.075 187.463 257.202 187.441 257.325C187.42 257.448 187.355 257.56 187.259 257.64C187.163 257.72 187.042 257.764 186.917 257.764H186.917Z" fill="black"/>
<path d="M103.211 226.858C103.148 226.858 103.086 226.847 103.027 226.825L58.1032 210.331C58.0375 210.307 57.9771 210.27 57.9257 210.223C57.8742 210.175 57.8326 210.118 57.8032 210.055C57.7738 209.991 57.7572 209.922 57.7543 209.853C57.7515 209.783 57.7625 209.713 57.7866 209.647C57.8107 209.582 57.8476 209.521 57.895 209.47C57.9425 209.418 57.9996 209.377 58.0631 209.347C58.1266 209.318 58.1954 209.301 58.2653 209.299C58.3352 209.296 58.4051 209.307 58.4708 209.331L103.395 225.825C103.512 225.868 103.611 225.951 103.673 226.06C103.736 226.168 103.758 226.295 103.736 226.418C103.714 226.541 103.649 226.653 103.553 226.733C103.458 226.814 103.336 226.858 103.211 226.858Z" fill="black"/>
<path d="M94.7939 146.744C92.9209 146.326 91.0243 145.995 89.1513 145.765L88.8788 145.732C76.4448 144.252 65.9478 149.439 64.4622 157.798L64.1981 159.311C64.0332 160.267 63.8553 161.295 63.6438 162.433C63.5414 162.995 64.106 163.569 64.9272 163.753L363.969 230.565C385.086 235.128 406.135 239.636 426.528 243.963C430.344 244.825 434.21 245.45 438.103 245.834C443.929 246.327 448.194 245.678 451.144 243.849L451.145 243.849C454.811 241.583 455.734 237.904 456.487 233.683C458.004 225.159 459.62 216.208 461.231 207.285C462.649 199.421 464.065 191.578 465.406 184.066C466.194 179.606 466.623 175.61 463.871 171.868C460.888 167.819 454.498 164.677 444.879 162.528C444.763 162.502 444.647 162.476 444.53 162.45C414.357 155.839 381.82 161.091 363.567 175.522C361.466 177.183 359.444 179.013 357.489 180.784C354.596 183.525 351.514 186.06 348.264 188.368C346.47 189.602 344.566 190.67 342.577 191.557C342.441 191.624 342.285 191.693 342.124 191.756C341.748 191.925 341.36 192.083 340.985 192.217C338.807 193.056 336.545 193.663 334.238 194.027L334.008 194.061C333.834 194.091 333.647 194.118 333.461 194.139C332.138 194.317 330.807 194.422 329.473 194.453C323.709 194.618 317.432 193.564 310.818 191.319C304.714 189.224 298.882 186.406 293.448 182.926C287.683 179.241 282.444 175.083 277.379 171.062C275.154 169.296 272.852 167.469 270.539 165.709C270.104 165.378 269.677 165.053 269.241 164.727C266.409 162.612 263.815 160.808 261.313 159.213C255.169 155.276 248.503 152.221 241.51 150.136C234.118 147.989 227.312 147.403 221.286 148.391C219.613 148.664 217.963 149.069 216.353 149.6C208.93 152.05 203.602 156.922 198.45 161.634C192.04 167.495 185.413 173.557 174.665 175.065C162.262 176.809 145.962 171.292 134.842 165.545C131.346 163.738 127.887 161.785 124.542 159.896C123.191 159.133 121.839 158.373 120.484 157.615C117.822 156.131 115.634 154.961 113.597 153.93L112.953 153.603C112.594 153.423 112.235 153.243 111.868 153.066C109.442 151.874 107.163 150.853 104.897 149.944L104.362 149.726C103.284 149.308 102.272 148.934 101.276 148.587L100.877 148.449C98.882 147.771 96.8511 147.202 94.7939 146.744Z" fill="#F2F2F2"/>
<path d="M451.584 247.097C451.547 247.097 451.51 247.093 451.474 247.086L56.9376 163.847C56.8 163.817 56.6798 163.734 56.6032 163.615C56.5267 163.497 56.5001 163.354 56.5292 163.216C56.5583 163.078 56.6407 162.958 56.7585 162.88C56.8763 162.803 57.0199 162.776 57.1578 162.804L451.694 246.043C451.823 246.07 451.937 246.144 452.015 246.25C452.092 246.357 452.128 246.488 452.114 246.619C452.101 246.75 452.039 246.872 451.941 246.96C451.843 247.048 451.716 247.097 451.584 247.097Z" fill="black"/>
<path d="M369.744 54.353C384.761 54.353 396.935 42.1856 396.935 27.1765C396.935 12.1673 384.761 0 369.744 0C354.727 0 342.553 12.1673 342.553 27.1765C342.553 42.1856 354.727 54.353 369.744 54.353Z" fill="#FF6584"/>
<path d="M418.814 6.32539C405.636 4.54506 390.591 11.6641 387.175 24.5089C386.315 22.2251 384.75 20.2739 382.707 18.9372C380.664 17.6005 378.249 16.9475 375.81 17.0726C373.372 17.1976 371.036 18.0943 369.141 19.6329C367.245 21.1716 365.888 23.2727 365.266 25.6325L366.775 26.7125C395.015 32.8162 424.248 32.6841 452.431 26.3254C443.265 16.697 431.992 8.10565 418.814 6.32539Z" fill="#F0F0F0"/>
<path d="M362.299 42.5607C349.121 40.7804 334.076 47.8994 330.661 60.7442C329.8 58.4604 328.235 56.5092 326.192 55.1725C324.149 53.8358 321.734 53.1828 319.295 53.3079C316.857 53.4329 314.521 54.3296 312.626 55.8683C310.731 57.4069 309.374 59.508 308.751 61.8679L310.26 62.9478C338.5 69.0515 367.733 68.9194 395.916 62.5607C386.75 52.9323 375.477 44.341 362.299 42.5607Z" fill="#F0F0F0"/>
<path d="M385.948 260.619C385.411 260.08 384.999 259.43 384.741 258.714C384.483 257.999 384.385 257.236 384.454 256.479C384.523 255.722 384.758 254.989 385.141 254.332C385.524 253.675 386.046 253.11 386.671 252.677L378.386 211.546L387.536 214.482L394.168 254.266C394.826 255.363 395.059 256.665 394.822 257.923C394.585 259.181 393.894 260.308 392.881 261.091C391.868 261.874 390.602 262.259 389.325 262.172C388.047 262.084 386.845 261.532 385.948 260.619Z" fill="#9E616A"/>
<path d="M373.714 173.597L379.391 169.314C379.391 169.314 384.399 168.96 385.286 177.986C386.173 187.012 387.994 204.603 387.994 204.603L396.681 244.815L384.656 247.453L375.352 204.057L369.77 191.17L373.714 173.597Z" fill="#2F2E41"/>
<path d="M383.073 239.26L351.084 238.727L348.418 216.879H383.073V239.26Z" fill="#9E616A"/>
<path d="M353.5 372.921L346.115 372.92L342.602 344.451L353.501 344.451L353.5 372.921Z" fill="#9E616A"/>
<path d="M400.548 362.697L393.163 362.645L389.85 334.151L399.454 336.354L400.548 362.697Z" fill="#9E616A"/>
<path d="M377.45 198.064L379.123 202.412L378.789 206.76L346.04 218.097L347.665 199.067L351.347 194.719L377.45 198.064Z" fill="#FFB6B6"/>
<path d="M363.401 158.933C369.861 158.933 375.098 153.699 375.098 147.243C375.098 140.787 369.861 135.553 363.401 135.553C356.941 135.553 351.704 140.787 351.704 147.243C351.704 153.699 356.941 158.933 363.401 158.933Z" fill="#9E616A"/>
<path d="M356.803 386.936H351.563L350.628 381.991L348.232 386.936H334.334C333.668 386.936 333.019 386.723 332.482 386.328C331.946 385.934 331.549 385.378 331.351 384.742C331.153 384.107 331.163 383.424 331.38 382.795C331.597 382.165 332.01 381.622 332.559 381.243L343.657 373.582V368.583L355.331 369.28L356.803 386.936Z" fill="#2F2E41"/>
<path d="M404.422 376.739L399.182 376.703L398.282 371.751L395.851 376.679L381.953 376.582C381.287 376.577 380.64 376.36 380.106 375.962C379.572 375.563 379.18 375.005 378.986 374.368C378.792 373.731 378.807 373.049 379.029 372.421C379.25 371.793 379.667 371.252 380.218 370.878L391.37 363.294L391.405 358.295L403.074 359.074L404.422 376.739Z" fill="#2F2E41"/>
<path d="M402.846 342.434L397.468 309.599L391.071 264.305C395.756 255.608 385.206 228.602 385.206 228.602L383.717 228.674L350.01 235.029L350.017 234.997C343.123 253.79 340.839 263.074 341.217 283.087L342.575 355.031H342.149C341.442 355.031 340.764 355.311 340.264 355.811C339.764 356.311 339.483 356.988 339.483 357.695C339.483 358.401 339.764 359.079 340.264 359.579C340.764 360.079 341.442 360.359 342.149 360.359H355.478C356.185 360.359 356.863 360.079 357.363 359.579C357.863 359.079 358.144 358.401 358.144 357.695C358.144 356.988 357.863 356.311 357.363 355.811C356.863 355.311 356.185 355.031 355.478 355.031H355.134L367.369 269.368L377.742 305.336L389.471 342.104C385.206 341.038 385.868 343.507 385.868 344.906C385.868 345.613 386.149 346.29 386.649 346.79C387.149 347.29 387.827 347.57 388.534 347.57H401.863C402.483 347.571 403.083 347.355 403.561 346.961C404.039 346.566 404.365 346.017 404.481 345.409C404.598 344.8 404.498 344.17 404.199 343.627C403.901 343.084 403.422 342.662 402.846 342.434Z" fill="#2F2E41"/>
<path d="M387.83 230.001L386.764 219.344C386.653 218.909 386.408 218.52 386.062 218.234C385.717 217.947 385.29 217.777 384.842 217.748C384.398 212.671 382.528 190.769 382.417 189.814L382.412 189.774L381.562 171.625C381.531 170.966 381.259 170.341 380.796 169.87C380.334 169.4 379.714 169.115 379.055 169.072L374.566 168.779C374.504 168.777 374.446 168.751 374.403 168.707C374.36 168.663 374.336 168.603 374.336 168.542C374.336 168.046 374.238 167.556 374.049 167.098C373.859 166.64 373.581 166.224 373.23 165.874C372.88 165.523 372.463 165.245 372.005 165.056C371.547 164.866 371.056 164.768 370.56 164.768H357.268C356.407 164.769 355.576 165.083 354.931 165.653C354.285 166.222 353.87 167.007 353.762 167.861C353.757 167.92 353.729 167.974 353.684 168.013C353.64 168.052 353.583 168.073 353.524 168.072L353.522 168.072C352.012 168.041 350.54 168.552 349.375 169.513C348.209 170.473 347.427 171.819 347.169 173.307C345.352 183.875 341.71 207.859 343.511 221.192C344.137 225.834 342.786 222.158 342.549 226.041C342.526 226.417 342.577 226.793 342.699 227.149C342.821 227.504 343.012 227.832 343.261 228.114C342.164 228.433 341.739 229.617 342.02 230.734L341.786 230.676C341.925 231.224 342.275 231.695 342.761 231.985C343.246 232.275 343.827 232.36 344.376 232.222L385.217 221.931C386.359 221.644 388.118 231.142 387.83 230.001Z" fill="#2F2E41"/>
<path d="M342.878 260.619C343.414 260.08 343.826 259.43 344.084 258.714C344.342 257.999 344.44 257.236 344.371 256.479C344.302 255.722 344.068 254.989 343.685 254.332C343.302 253.675 342.779 253.11 342.154 252.677L350.439 211.546L341.29 214.482L334.658 254.266C333.999 255.364 333.766 256.665 334.003 257.923C334.241 259.181 334.931 260.308 335.944 261.091C336.958 261.874 338.223 262.259 339.501 262.172C340.779 262.085 341.98 261.532 342.878 260.619Z" fill="#9E616A"/>
<path d="M355.111 173.597L349.434 169.314C349.434 169.314 344.427 168.96 343.54 177.986C342.653 187.012 340.831 204.603 340.831 204.603L332.145 244.815L344.17 247.453L353.474 204.057L359.055 191.17L355.111 173.597Z" fill="#2F2E41"/>
<path d="M375.926 136.848C378.105 137.496 380.138 135.675 381.655 133.949L381.116 134.588C384.684 137.099 386.817 141.19 388.201 145.331C389.585 149.468 390.357 153.801 391.92 157.878C393.482 161.951 396.004 165.891 399.864 167.923C405.035 170.644 411.371 169.407 416.871 167.443C416.945 167.416 417.013 167.393 417.086 167.366C414.858 163.207 413.494 158.641 413.075 153.942C415.338 158.357 418.601 162.183 422.605 165.115C426.198 163.482 429.654 161.561 432.938 159.371C435.062 157.951 437.301 156.116 437.547 153.572C437.798 151.048 435.912 148.742 433.687 147.527C431.462 146.313 428.904 145.902 426.474 145.171C424.048 144.445 421.572 143.254 420.298 141.062C417.36 136.022 422.303 128.913 419.151 124C417.598 121.585 414.583 120.617 411.787 119.945C407.52 118.925 403.188 118.195 398.822 117.758C394.99 117.375 391.029 117.233 387.384 118.466C383.738 119.699 380.431 122.562 379.65 126.333C377.521 127.452 375.269 128.689 374.127 130.812C372.984 132.931 373.619 136.163 375.926 136.848Z" fill="#2F2E41"/>
<path d="M379.179 135.999C381.266 138.611 382.402 141.436 382.402 143.128C386.736 151.046 380.538 157.848 372.615 162.18C369.455 163.917 365.807 164.553 362.245 163.987L361.914 162.573L361.465 163.846C361.465 163.846 356.306 180.874 354.605 181.872C355.251 178.842 355.99 164.812 356.35 161.854C356.847 157.829 355.113 151.837 353.861 148.193C353.086 145.947 352.687 143.588 352.683 141.212V141.108L351.465 145.019L347.029 143.128C347.854 138.398 347.029 133.027 356.922 133.493C362.273 129.815 366.985 129.255 370.855 130.298C371.355 129.526 374.235 130.972 375.067 130.565" fill="#2F2E41"/>
<path d="M390.255 219.131C390.067 220.808 389.323 222.374 388.143 223.581C386.963 224.788 385.413 225.566 383.739 225.792L359.657 229.053C357.665 229.321 355.649 228.787 354.051 227.57C352.452 226.354 351.402 224.552 351.132 222.563L347.661 196.91C347.435 195.242 347.772 193.547 348.62 192.093L348.455 190.846C347.771 190.597 347.168 190.166 346.712 189.599C346.255 189.033 345.962 188.352 345.865 187.632C345.767 186.911 345.868 186.177 346.157 185.509C346.447 184.842 346.913 184.266 347.506 183.844L350.481 170.069C350.441 169.774 350.464 169.474 350.547 169.188C350.63 168.902 350.772 168.637 350.964 168.409C351.155 168.181 351.393 167.996 351.66 167.865C351.928 167.735 352.22 167.661 352.518 167.65C353.059 167.644 353.583 167.838 353.99 168.195C354.396 168.553 354.656 169.047 354.72 169.584L354.992 171.609C355.355 174.286 356.721 176.725 358.815 178.433C360.908 180.141 363.573 180.991 366.269 180.811C368.966 180.631 371.493 179.434 373.341 177.463C375.188 175.492 376.218 172.893 376.222 170.192C376.222 169.709 376.19 169.227 376.126 168.748L375.859 166.755C375.773 166.201 375.899 165.635 376.214 165.171C376.529 164.707 377.008 164.38 377.555 164.256C377.84 164.202 378.132 164.206 378.415 164.269C378.698 164.332 378.966 164.452 379.201 164.621C379.436 164.791 379.634 165.007 379.782 165.255C379.931 165.504 380.028 165.78 380.066 166.067L381.788 178.75C382.735 178.685 383.675 178.959 384.438 179.523C385.201 180.087 385.739 180.904 385.954 181.829C386.169 182.753 386.047 183.724 385.611 184.566C385.175 185.409 384.453 186.069 383.574 186.428C384.436 187.025 385.164 187.795 385.712 188.689C386.26 189.582 386.616 190.58 386.757 191.619L390.233 217.276C390.318 217.891 390.325 218.514 390.255 219.131Z" fill="#0087FD"/>
<path d="M348.112 191.41C348.084 191.2 348.14 190.987 348.268 190.819C348.397 190.65 348.587 190.54 348.797 190.511L381.622 185.482C381.726 185.468 381.831 185.474 381.933 185.501C382.034 185.528 382.13 185.575 382.213 185.638C382.297 185.702 382.367 185.781 382.42 185.872C382.473 185.963 382.507 186.063 382.521 186.167C382.535 186.271 382.529 186.377 382.502 186.478C382.475 186.58 382.429 186.675 382.365 186.758C382.301 186.842 382.222 186.912 382.131 186.965C382.04 187.018 381.94 187.052 381.836 187.066L349.012 192.095C348.801 192.123 348.589 192.067 348.42 191.939C348.251 191.81 348.14 191.62 348.112 191.41Z" fill="#3F3D56"/>
<path d="M351.948 204.876L350.863 196.864C350.779 196.246 350.945 195.62 351.323 195.123C351.701 194.627 352.261 194.301 352.879 194.218L384.229 190.21C384.848 190.126 385.474 190.291 385.971 190.669C386.467 191.047 386.793 191.607 386.877 192.225L387.962 200.237C388.045 200.855 387.88 201.481 387.502 201.977C387.124 202.474 386.564 202.799 385.945 202.883L373.423 204.605C373.449 204.69 373.47 204.777 373.486 204.865L374.594 213.05L385.161 211.621C385.23 211.611 385.301 211.616 385.369 211.633C385.437 211.651 385.5 211.682 385.556 211.725C385.612 211.767 385.659 211.82 385.694 211.88C385.729 211.941 385.752 212.008 385.762 212.077C385.771 212.147 385.767 212.217 385.749 212.285C385.731 212.353 385.7 212.416 385.657 212.472C385.615 212.528 385.562 212.574 385.501 212.61C385.44 212.645 385.373 212.668 385.304 212.677L374.737 214.106L369.982 214.749L359.944 216.107C359.804 216.126 359.662 216.088 359.549 216.003C359.437 215.917 359.363 215.791 359.344 215.651C359.325 215.511 359.363 215.369 359.448 215.257C359.534 215.144 359.661 215.07 359.801 215.051L369.839 213.693L368.731 205.508C368.723 205.419 368.72 205.33 368.722 205.241L354.595 206.891C353.977 206.975 353.35 206.809 352.854 206.432C352.358 206.054 352.032 205.494 351.948 204.876Z" fill="#3F3D56"/>
<path d="M228.724 411C228.592 411 228.465 410.951 228.367 410.863L0.176207 205.285C0.0713856 205.191 0.0084418 205.058 0.00119158 204.917C-0.00605865 204.776 0.04298 204.638 0.13754 204.533C0.232099 204.428 0.364455 204.365 0.505541 204.358C0.646627 204.35 0.784914 204.399 0.890041 204.493L229.081 410.071C229.161 410.143 229.218 410.238 229.243 410.343C229.268 410.448 229.261 410.558 229.222 410.658C229.183 410.759 229.115 410.845 229.026 410.906C228.937 410.967 228.832 411 228.724 411Z" fill="black"/>
<path d="M348.178 203.337C348.189 203.183 348.167 203.028 348.114 202.884C348.06 202.739 347.976 202.607 347.868 202.498C347.759 202.388 347.628 202.303 347.484 202.248C347.34 202.194 347.186 202.17 347.032 202.18C346.974 202.182 346.917 202.189 346.861 202.202L340.111 203.726C339.96 203.762 339.819 203.83 339.696 203.924C339.573 204.019 339.471 204.138 339.397 204.274C339.298 204.278 339.2 204.292 339.104 204.317C338.679 204.413 338.311 204.674 338.079 205.041C337.847 205.409 337.77 205.854 337.867 206.278C337.963 206.702 338.224 207.07 338.591 207.302C338.959 207.534 339.404 207.61 339.829 207.514C340.07 207.458 340.296 207.349 340.49 207.195L342.777 213.632C342.891 213.833 343.068 213.993 343.28 214.086C343.493 214.179 343.729 214.201 343.955 214.149L348.343 213.157C348.567 213.105 348.769 212.983 348.919 212.808C349.07 212.634 349.161 212.417 349.18 212.188L348.178 203.337ZM339.727 207.056C339.577 207.09 339.422 207.095 339.27 207.069C339.118 207.043 338.973 206.988 338.842 206.906C338.712 206.824 338.599 206.717 338.51 206.592C338.42 206.466 338.357 206.324 338.322 206.174C338.288 206.024 338.284 205.869 338.31 205.717C338.335 205.565 338.391 205.42 338.473 205.289C338.555 205.159 338.661 205.046 338.787 204.957C338.913 204.868 339.055 204.804 339.205 204.77C339.226 204.765 339.248 204.77 339.269 204.765C339.267 204.959 339.317 205.15 339.413 205.319L340.25 206.779C340.104 206.917 339.923 207.013 339.727 207.056Z" fill="#CCCCCC"/>
<path d="M347.032 202.18C347.096 203.033 345.635 204.013 343.678 204.402C341.881 204.77 340.271 204.514 339.818 203.843C339.909 203.789 340.008 203.749 340.111 203.726L346.861 202.202C346.917 202.19 346.974 202.182 347.032 202.18Z" fill="#E6E6E6"/>
<path d="M343.504 219.208L341.545 215.133C340.397 212.746 342.498 210.206 346.23 209.472L350.828 208.697L352.751 222.127L352.353 222.205C348.622 222.939 344.652 221.595 343.504 219.208Z" fill="#0087FD"/>
<g opacity="0.2">
<path d="M390.255 219.131C390.067 220.808 389.323 222.374 388.143 223.581C386.963 224.788 385.413 225.566 383.739 225.792L359.657 229.053C358.226 229.246 356.77 229.027 355.46 228.421C354.15 227.815 353.04 226.847 352.262 225.632C352.941 224.812 353.782 224.14 354.732 223.66C355.682 223.179 356.722 222.9 357.785 222.84C359.854 222.733 361.859 223.42 363.885 223.804C368.783 224.727 373.851 223.887 378.189 221.433C380.071 220.34 381.767 218.944 383.835 218.166C385.904 217.394 388.575 217.42 390.073 218.928C390.138 218.992 390.199 219.06 390.255 219.131Z" fill="black"/>
</g>
</g>
<defs>
<clipPath id="clip0_467_1947">
<rect width="466" height="411" fill="white"/>
</clipPath>
</defs>
</svg>
