<svg width="160" height="64" viewBox="0 0 160 64" fill="none" xmlns="http://www.w3.org/2000/svg">
<path d="M16 32V16H48L32 32V48L16 32Z" stroke="#0087FD" stroke-width="2"/>
<path d="M64.688 32.416C64.688 31.328 64.9333 30.352 65.424 29.488C65.9147 28.6133 66.5813 27.9307 67.424 27.44C68.2773 26.9493 69.2213 26.704 70.256 26.704C71.472 26.704 72.5333 26.9973 73.44 27.584C74.3467 28.1707 75.008 29.0027 75.424 30.08H73.68C73.3707 29.408 72.9227 28.8907 72.336 28.528C71.76 28.1653 71.0667 27.984 70.256 27.984C69.4773 27.984 68.7787 28.1653 68.16 28.528C67.5413 28.8907 67.056 29.408 66.704 30.08C66.352 30.7413 66.176 31.52 66.176 32.416C66.176 33.3013 66.352 34.08 66.704 34.752C67.056 35.4133 67.5413 35.9253 68.16 36.288C68.7787 36.6507 69.4773 36.832 70.256 36.832C71.0667 36.832 71.76 36.656 72.336 36.304C72.9227 35.9413 73.3707 35.424 73.68 34.752H75.424C75.008 35.8187 74.3467 36.6453 73.44 37.232C72.5333 37.808 71.472 38.096 70.256 38.096C69.2213 38.096 68.2773 37.856 67.424 37.376C66.5813 36.8853 65.9147 36.208 65.424 35.344C64.9333 34.48 64.688 33.504 64.688 32.416ZM81.4154 38.144C80.594 38.144 79.8474 37.9573 79.1754 37.584C78.514 37.2107 77.9914 36.6827 77.6074 36C77.234 35.3067 77.0474 34.5067 77.0474 33.6C77.0474 32.704 77.2394 31.9147 77.6234 31.232C78.018 30.5387 78.5514 30.0107 79.2234 29.648C79.8954 29.2747 80.6474 29.088 81.4794 29.088C82.3114 29.088 83.0634 29.2747 83.7354 29.648C84.4074 30.0107 84.9354 30.5333 85.3194 31.216C85.714 31.8987 85.9114 32.6933 85.9114 33.6C85.9114 34.5067 85.7087 35.3067 85.3034 36C84.9087 36.6827 84.37 37.2107 83.6874 37.584C83.0047 37.9573 82.2474 38.144 81.4154 38.144ZM81.4154 36.864C81.938 36.864 82.4287 36.7413 82.8874 36.496C83.346 36.2507 83.714 35.8827 83.9914 35.392C84.2794 34.9013 84.4234 34.304 84.4234 33.6C84.4234 32.896 84.2847 32.2987 84.0074 31.808C83.73 31.3173 83.3674 30.9547 82.9194 30.72C82.4714 30.4747 81.986 30.352 81.4634 30.352C80.93 30.352 80.4394 30.4747 79.9914 30.72C79.554 30.9547 79.202 31.3173 78.9354 31.808C78.6687 32.2987 78.5354 32.896 78.5354 33.6C78.5354 34.3147 78.6634 34.9173 78.9194 35.408C79.186 35.8987 79.538 36.2667 79.9754 36.512C80.4127 36.7467 80.8927 36.864 81.4154 36.864ZM87.2818 33.584C87.2818 32.688 87.4631 31.904 87.8258 31.232C88.1884 30.5493 88.6844 30.0213 89.3138 29.648C89.9538 29.2747 90.6684 29.088 91.4578 29.088C92.1404 29.088 92.7751 29.248 93.3618 29.568C93.9484 29.8773 94.3964 30.288 94.7058 30.8V26.16H96.1778V38H94.7058V36.352C94.4178 36.8747 93.9911 37.3067 93.4258 37.648C92.8604 37.9787 92.1991 38.144 91.4418 38.144C90.6631 38.144 89.9538 37.952 89.3138 37.568C88.6844 37.184 88.1884 36.6453 87.8258 35.952C87.4631 35.2587 87.2818 34.4693 87.2818 33.584ZM94.7058 33.6C94.7058 32.9387 94.5724 32.3627 94.3058 31.872C94.0391 31.3813 93.6764 31.008 93.2178 30.752C92.7698 30.4853 92.2738 30.352 91.7298 30.352C91.1858 30.352 90.6898 30.48 90.2418 30.736C89.7938 30.992 89.4364 31.3653 89.1698 31.856C88.9031 32.3467 88.7698 32.9227 88.7698 33.584C88.7698 34.256 88.9031 34.8427 89.1698 35.344C89.4364 35.8347 89.7938 36.2133 90.2418 36.48C90.6898 36.736 91.1858 36.864 91.7298 36.864C92.2738 36.864 92.7698 36.736 93.2178 36.48C93.6764 36.2133 94.0391 35.8347 94.3058 35.344C94.5724 34.8427 94.7058 34.2613 94.7058 33.6ZM106.638 33.28C106.638 33.5573 106.622 33.8507 106.59 34.16H99.5823C99.6356 35.024 99.9289 35.7013 100.462 36.192C101.006 36.672 101.662 36.912 102.43 36.912C103.06 36.912 103.582 36.768 103.998 36.48C104.425 36.1813 104.724 35.7867 104.894 35.296H106.462C106.228 36.1387 105.758 36.8267 105.054 37.36C104.35 37.8827 103.476 38.144 102.43 38.144C101.598 38.144 100.852 37.9573 100.19 37.584C99.5396 37.2107 99.0276 36.6827 98.6543 36C98.2809 35.3067 98.0943 34.5067 98.0943 33.6C98.0943 32.6933 98.2756 31.8987 98.6383 31.216C99.0009 30.5333 99.5076 30.0107 100.158 29.648C100.82 29.2747 101.577 29.088 102.43 29.088C103.262 29.088 103.998 29.2693 104.638 29.632C105.278 29.9947 105.769 30.496 106.11 31.136C106.462 31.7653 106.638 32.48 106.638 33.28ZM105.134 32.976C105.134 32.4213 105.012 31.9467 104.766 31.552C104.521 31.1467 104.185 30.8427 103.758 30.64C103.342 30.4267 102.878 30.32 102.366 30.32C101.63 30.32 101.001 30.5547 100.478 31.024C99.9663 31.4933 99.6729 32.144 99.5983 32.976H105.134ZM119.872 26.928V38H118.416V29.744L114.736 38H113.712L110.016 29.728V38H108.56V26.928H110.128L114.224 36.08L118.32 26.928H119.872ZM121.797 33.584C121.797 32.688 121.979 31.904 122.341 31.232C122.704 30.5493 123.2 30.0213 123.829 29.648C124.469 29.2747 125.179 29.088 125.957 29.088C126.725 29.088 127.392 29.2533 127.957 29.584C128.523 29.9147 128.944 30.3307 129.221 30.832V29.232H130.693V38H129.221V36.368C128.933 36.88 128.501 37.3067 127.925 37.648C127.36 37.9787 126.699 38.144 125.941 38.144C125.163 38.144 124.459 37.952 123.829 37.568C123.2 37.184 122.704 36.6453 122.341 35.952C121.979 35.2587 121.797 34.4693 121.797 33.584ZM129.221 33.6C129.221 32.9387 129.088 32.3627 128.821 31.872C128.555 31.3813 128.192 31.008 127.733 30.752C127.285 30.4853 126.789 30.352 126.245 30.352C125.701 30.352 125.205 30.48 124.757 30.736C124.309 30.992 123.952 31.3653 123.685 31.856C123.419 32.3467 123.285 32.9227 123.285 33.584C123.285 34.256 123.419 34.8427 123.685 35.344C123.952 35.8347 124.309 36.2133 124.757 36.48C125.205 36.736 125.701 36.864 126.245 36.864C126.789 36.864 127.285 36.736 127.733 36.48C128.192 36.2133 128.555 35.8347 128.821 35.344C129.088 34.8427 129.221 34.2613 129.221 33.6ZM134.61 30.656C134.866 30.1547 135.229 29.7653 135.698 29.488C136.178 29.2107 136.759 29.072 137.442 29.072V30.576H137.058C135.426 30.576 134.61 31.4613 134.61 33.232V38H133.154V29.232H134.61V30.656ZM140.899 30.432V35.6C140.899 36.0267 140.989 36.3307 141.171 36.512C141.352 36.6827 141.667 36.768 142.115 36.768H143.187V38H141.875C141.064 38 140.456 37.8133 140.051 37.44C139.645 37.0667 139.443 36.4533 139.443 35.6V30.432H138.307V29.232H139.443V27.024H140.899V29.232H143.187V30.432H140.899Z" fill="#0087FD"/>
<path d="M108 44L144 44" stroke="#0087FD" stroke-linejoin="round"/>
</svg>
