<svg width="28" height="28" viewBox="0 0 28 28" fill="none" xmlns="http://www.w3.org/2000/svg">
<path d="M9.91671 22.1667H9.33337C4.66671 22.1667 2.33337 21 2.33337 15.1667V9.33337C2.33337 4.66671 4.66671 2.33337 9.33337 2.33337H18.6667C23.3334 2.33337 25.6667 4.66671 25.6667 9.33337V15.1667C25.6667 19.8334 23.3334 22.1667 18.6667 22.1667H18.0834C17.7217 22.1667 17.3717 22.3417 17.15 22.6334L15.4 24.9667C14.63 25.9934 13.37 25.9934 12.6 24.9667L10.85 22.6334C10.6634 22.3767 10.2317 22.1667 9.91671 22.1667Z" stroke="#0087FD" stroke-width="1.5" stroke-miterlimit="10" stroke-linecap="round" stroke-linejoin="round"/>
<path d="M18.6626 12.8334H18.673" stroke="#0087FD" stroke-width="2" stroke-linecap="round" stroke-linejoin="round"/>
<path d="M13.9948 12.8334H14.0053" stroke="#0087FD" stroke-width="2" stroke-linecap="round" stroke-linejoin="round"/>
<path d="M9.3269 12.8334H9.33738" stroke="#0087FD" stroke-width="2" stroke-linecap="round" stroke-linejoin="round"/>
</svg>
